<svg version="1.1" id="Layer_1" xmlns="http://www.w3.org/2000/svg" xmlns:xlink="http://www.w3.org/1999/xlink" x="0px" y="0px"
	 width="100%" viewBox="0 0 368 78" enable-background="new 0 0 368 78" xml:space="preserve">
<path fill="#000000" opacity="1.000000" stroke="none" 
	d="
M369.000000,57.000000 
	C369.000000,64.323036 369.000000,71.646080 369.000000,79.000000 
	C272.645782,79.000000 176.291550,79.000000 79.132500,78.763138 
	C82.668755,75.384262 86.065872,71.787193 86.139893,65.873306 
	C86.235931,58.199589 86.742722,50.531651 86.956871,42.857986 
	C86.984772,41.858494 86.324486,40.839794 86.170578,39.465340 
	C86.568794,37.319496 86.952003,35.539257 86.961761,33.756966 
	C87.021507,22.838236 86.996666,11.919041 87.000000,1.000000 
	C181.000015,1.000000 275.000031,1.000000 369.000000,1.000000 
	C369.000000,9.419715 369.000000,17.741192 368.640442,26.601181 
	C365.924866,27.139692 363.568848,27.139692 361.070526,27.139692 
	C361.070526,29.800392 361.070526,32.173256 361.070526,35.000000 
	C363.820282,35.000000 366.410126,35.000000 369.000000,35.000000 
	C369.000000,35.750000 369.000000,36.500000 368.531342,37.625008 
	C284.423523,38.000019 200.784393,37.999828 117.145241,38.001549 
	C115.646080,38.001579 114.143913,37.970570 112.648743,38.054279 
	C111.519035,38.117527 110.398285,38.341034 109.273552,38.493214 
	C109.919991,39.328815 110.566429,40.164413 111.212868,41.000011 
	C113.168343,41.000011 115.123825,41.000008 117.079300,41.000008 
	C186.389816,41.000008 255.700348,40.997471 325.010864,41.007114 
	C328.672729,41.007626 332.334595,41.111301 335.996765,41.576206 
	C337.133118,46.519806 338.175751,51.082161 339.517609,55.554756 
	C339.694885,56.145653 341.397827,56.278824 342.394165,56.623989 
	C342.645142,55.672871 343.178284,54.695000 343.091156,53.775948 
	C342.878967,51.538158 341.900787,49.282612 342.104736,47.116478 
	C342.427765,43.685802 341.027466,41.976711 338.428314,41.095676 
	C348.929932,41.017727 358.964966,41.008865 369.000000,41.000000 
	C369.000000,43.041668 369.000000,45.083332 368.609375,47.559715 
	C367.891174,47.988174 367.562561,47.996059 367.236084,47.973427 
	C364.512848,47.784657 361.247223,46.054359 360.934662,51.173759 
	C360.670471,55.500839 361.811218,57.781406 366.545227,57.019245 
	C367.343811,56.890682 368.180786,57.000381 369.000000,57.000000 
M268.301819,26.999264 
	C263.929382,25.189379 262.259430,27.728186 261.411255,32.260811 
	C260.435791,25.948446 260.435791,25.948446 253.341064,27.720554 
	C253.341064,29.418447 253.341064,31.181124 253.341064,32.943798 
	C253.039932,21.085659 243.247635,29.904381 239.226395,26.629143 
	C238.961914,26.413719 235.670639,29.914497 234.137894,31.356764 
	C234.021744,29.384542 233.843567,26.359272 233.673050,23.464027 
	C228.862289,23.464027 224.696472,23.464027 220.883530,23.464027 
	C220.883530,27.517527 220.883530,31.098055 220.883530,34.815239 
	C222.456604,34.815239 223.588120,34.815239 225.181046,34.815239 
	C223.638901,29.493347 227.833374,30.151369 230.954803,28.708855 
	C230.954803,31.063339 230.954803,32.828171 230.954803,34.831795 
	C243.163651,34.831795 255.082077,34.831795 267.835297,34.934555 
	C269.812286,34.934555 271.789276,34.934555 273.901917,34.934555 
	C274.034241,33.070904 274.147339,31.478241 274.260437,29.885578 
	C274.713745,29.723686 275.167023,29.561794 275.620300,29.399904 
	C276.393860,31.124556 277.167419,32.849205 278.100647,34.929855 
	C278.925751,34.929855 280.462616,35.390724 281.131348,34.825134 
	C282.217163,33.906738 283.407288,32.278423 283.337006,31.017611 
	C283.225891,29.025005 283.469208,26.025814 279.909302,26.277348 
	C276.269501,26.534527 272.634888,26.864578 268.301819,26.999264 
M159.357559,26.478582 
	C160.572128,25.872847 161.786697,25.267111 163.001266,24.661375 
	C162.859726,24.247023 162.718201,23.832672 162.576660,23.418322 
	C157.952042,23.418322 153.327423,23.418322 149.282410,23.418322 
	C149.282410,27.420919 149.282410,31.008318 149.282410,34.707886 
	C150.859039,34.707886 152.418640,34.707886 153.868164,34.707886 
	C153.739471,33.215313 153.067200,31.485641 153.625381,30.868027 
	C156.411896,27.784851 156.525543,27.887562 153.588409,25.051466 
	C155.388596,25.695553 157.188782,26.339640 158.993256,27.875912 
	C159.028305,34.991631 159.028305,35.002541 165.899353,35.000744 
	C175.514725,34.998234 185.130112,34.974152 194.745483,34.965694 
	C201.474014,34.959778 208.202545,34.964554 214.905289,34.964554 
	C215.190582,23.553570 215.190582,23.553570 211.732224,23.770786 
	C211.732224,26.637758 211.732224,29.496244 211.732224,33.053051 
	C209.764511,26.379728 208.881226,25.864504 203.434784,27.632153 
	C203.264328,29.251099 203.093857,30.870045 202.923401,32.488991 
	C202.723267,32.464798 202.523132,32.440609 202.322998,32.416420 
	C202.024200,30.705107 201.725403,28.993795 201.316788,26.653618 
	C197.406631,27.067717 193.858566,27.443468 190.310516,27.819218 
	C185.617126,27.141169 180.667404,26.486666 175.826965,26.956945 
	C174.385773,27.096962 173.251144,30.392389 172.095596,32.068615 
	C172.928711,27.385952 170.563812,26.033503 165.870316,26.918785 
	C163.619614,27.343311 161.228561,27.023863 159.357559,26.478582 
M325.698730,26.354195 
	C322.714294,26.756876 320.115997,28.904997 316.592773,26.813513 
	C314.609924,25.636438 311.311432,26.334522 308.686371,26.727446 
	C307.413910,26.917908 306.327301,28.349997 305.574005,28.909752 
	C304.736877,28.231037 303.531647,27.253845 302.326385,26.276657 
	C300.834686,28.366951 299.343018,30.457243 297.913818,32.459972 
	C296.550079,29.695385 294.933289,26.417835 292.758118,22.008261 
	C290.635986,27.013557 289.067963,30.711981 287.499908,34.410404 
	C289.056549,34.592384 289.599609,34.018818 290.259186,33.658684 
	C291.192017,33.149380 292.210907,32.797695 293.192993,32.378639 
	C294.633209,36.755226 298.301605,34.853283 301.030792,34.922626 
	C309.427734,35.135975 317.833435,35.007267 326.235748,35.003475 
	C336.037262,34.999054 345.840424,35.070400 355.638336,34.877365 
	C356.960541,34.851315 359.057037,33.717941 359.371735,32.669949 
	C359.815613,31.191673 359.411835,28.928671 358.454437,27.737411 
	C357.761414,26.875109 355.253784,26.557106 354.121429,27.125050 
	C349.903046,29.240816 347.129150,26.681524 345.042847,25.531704 
	C341.883545,26.008360 339.476593,26.068068 337.299072,26.805309 
	C335.814789,27.307840 334.516541,28.632784 333.401123,29.836504 
	C332.844147,30.437565 332.883545,31.591225 332.375916,33.582832 
	C331.988770,30.692902 331.773926,29.089230 331.545013,27.380608 
	C329.645752,27.130547 328.015839,26.915945 325.698730,26.354195 
M113.993828,30.417662 
	C113.993828,31.849554 113.993828,33.281445 113.993828,34.985809 
	C115.858681,34.896732 117.287064,34.828506 118.442734,34.773308 
	C118.442734,31.630426 118.442734,28.841303 118.442734,26.052181 
	C119.052345,25.916981 119.661957,25.781780 120.271576,25.646580 
	C121.172806,28.612825 122.074036,31.579069 123.113548,35.000450 
	C127.924110,35.000450 132.893219,35.011292 137.862274,34.997803 
	C144.589172,34.979546 145.176285,34.115761 142.834259,26.615187 
	C139.315567,29.924761 131.412704,21.127205 131.036804,33.403664 
	C129.133835,25.649971 125.740379,23.024240 119.126755,23.001543 
	C117.462463,22.995832 115.755013,22.772547 114.146904,23.073734 
	C112.759583,23.333567 111.485306,24.196941 110.161049,24.793493 
	C111.318375,25.526533 112.475693,26.259571 113.995102,27.221952 
	C113.995102,27.679140 113.995102,28.672960 113.993828,30.417662 
M112.006432,54.390404 
	C112.805893,59.721329 116.752243,54.280666 118.670898,57.354156 
	C118.670898,53.404125 118.670898,50.516998 118.670898,47.595890 
	C110.702370,48.491665 110.702370,48.491665 112.006432,54.390404 
M129.829056,56.280113 
	C130.797745,56.116936 132.588150,56.022186 132.608322,55.780025 
	C132.815216,53.295448 132.735123,50.786964 132.735123,48.285156 
	C132.142914,48.258018 131.550705,48.230885 130.958496,48.203751 
	C130.324448,49.639759 129.690384,51.075771 129.311478,51.933899 
	C127.893845,50.506260 126.610069,49.213425 125.326286,47.920589 
	C125.020241,48.265465 124.714188,48.610336 124.408134,48.955208 
	C124.408134,51.482368 124.408134,54.009533 124.408134,57.107704 
	C126.284363,56.656670 127.755249,56.303078 129.829056,56.280113 
M179.336060,56.746120 
	C180.513092,56.242035 182.607071,55.868610 182.700882,55.210178 
	C183.025055,52.935181 182.652191,50.560860 182.544693,48.224350 
	C182.007309,48.220261 181.469910,48.216167 180.932510,48.212074 
	C180.302429,49.639481 179.672348,51.066883 178.671341,53.334587 
	C177.817474,49.907768 177.713928,46.294308 173.635162,49.177204 
	C174.154327,51.212654 174.274689,53.149853 175.159210,54.630592 
	C175.736404,55.596863 177.423096,55.900394 179.336060,56.746120 
M245.667191,48.509552 
	C245.441071,51.168491 245.214951,53.827427 244.986389,56.515053 
	C248.021057,56.515053 250.221130,56.515053 252.471375,56.515053 
	C252.471375,53.797813 252.471375,51.193848 252.471375,48.589886 
	C252.199249,48.563457 251.927124,48.537033 251.654999,48.510609 
	C251.215454,49.710464 250.775909,50.910320 250.518051,51.614262 
	C248.977768,50.343292 247.688751,49.279640 245.667191,48.509552 
M148.188126,55.678413 
	C149.924683,55.244011 151.661240,54.809605 153.571823,54.331669 
	C153.879745,54.744476 154.519684,55.602379 155.159622,56.460281 
	C155.687698,56.213623 156.215790,55.966965 156.743881,55.720310 
	C155.789581,53.215698 155.545273,49.611057 153.730453,48.439743 
	C150.157440,46.133652 148.006943,48.750866 148.188126,55.678413 
M165.057526,51.035362 
	C164.238159,50.083305 163.418793,49.131248 162.599411,48.179192 
	C162.132324,49.236088 161.404907,50.258278 161.258347,51.357895 
	C161.030624,53.066444 161.198181,54.827682 161.198181,56.773056 
	C163.990768,56.635708 166.265594,56.523823 169.018555,56.388424 
	C168.872940,53.757435 168.731628,51.203857 168.585510,48.563549 
	C167.110336,49.941700 166.157379,50.831966 165.057526,51.035362 
M327.981384,50.343674 
	C327.021118,49.547691 326.060852,48.751713 325.100586,47.955734 
	C324.780945,48.352882 324.461273,48.750034 324.141632,49.147186 
	C325.043335,51.685726 325.945007,54.224266 326.812286,56.665932 
	C334.372620,57.317852 334.675995,56.838432 331.948547,48.170311 
	C331.312805,49.654644 330.941162,50.830231 330.273560,51.802586 
	C330.150635,51.981625 328.828491,51.337273 327.981384,50.343674 
M347.633453,50.984283 
	C348.377411,52.882092 349.121368,54.779903 350.128906,57.350117 
	C351.522308,55.374237 352.545898,53.922787 353.606110,52.419388 
	C354.024170,53.913166 354.375549,55.168785 354.726959,56.424408 
	C354.993805,56.359421 355.260620,56.294437 355.527466,56.229454 
	C355.527466,53.604961 355.527466,50.980465 355.527466,48.442169 
	C353.068573,48.310711 351.061615,48.007809 349.105560,48.206264 
	C348.432343,48.274563 347.886047,49.593784 347.633453,50.984283 
M265.795380,49.292629 
	C265.573914,49.083935 265.370636,48.848522 265.122162,48.679539 
	C265.020874,48.610622 264.716156,48.634056 264.682343,48.703003 
	C263.927429,50.241333 263.197479,51.791897 262.150391,53.998444 
	C260.370087,51.195339 262.092316,46.610512 257.119690,48.978893 
	C258.040192,51.669266 258.908173,54.206146 259.753052,56.675453 
	C266.885620,56.553753 266.885620,56.553753 265.795380,49.292629 
M234.804138,56.860176 
	C236.718719,56.646061 238.633316,56.431946 240.547897,56.217831 
	C239.845032,53.611492 239.142166,51.005154 238.439301,48.398811 
	C238.145966,48.454266 237.852615,48.509720 237.559265,48.565170 
	C237.167023,49.871700 236.774780,51.178234 236.105713,53.406818 
	C235.223602,51.195728 234.702057,49.888443 234.180527,48.581158 
	C233.723648,48.666126 233.266785,48.751099 232.809921,48.836067 
	C233.200577,51.428444 233.591248,54.020824 234.804138,56.860176 
M275.620697,50.474056 
	C276.417542,52.435978 277.214355,54.397900 278.282501,57.027802 
	C279.826172,48.448959 278.812012,47.315056 271.983154,48.481815 
	C271.983154,51.278294 271.983154,53.975922 271.983154,56.673553 
	C272.385803,56.674545 272.788422,56.675537 273.191071,56.676529 
	C273.783508,54.734867 274.375977,52.793209 275.620697,50.474056 
M295.864410,51.998898 
	C296.071594,52.422688 296.327942,52.830013 296.476471,53.273460 
	C296.867767,54.441372 297.212250,55.624989 297.575378,56.802353 
	C298.380646,55.882835 299.414795,55.075954 299.936035,54.016666 
	C300.666199,52.532909 301.014404,50.861187 301.928497,48.018055 
	C299.344269,48.160297 297.336273,48.131130 295.417786,48.531116 
	C295.138702,48.589302 295.287384,50.699230 295.864410,51.998898 
M319.996277,52.420284 
	C319.321808,50.984867 318.647339,49.549446 317.972870,48.114040 
	C316.273010,49.262531 314.573151,50.411022 311.902557,52.215378 
	C314.887665,54.163452 316.846497,55.441792 318.805359,56.720119 
	C319.201508,55.564667 319.597656,54.409214 319.996277,52.420284 
M192.956573,52.338520 
	C193.118942,53.670650 193.281311,55.002785 193.443680,56.334919 
	C193.802780,56.307438 194.161880,56.279957 194.520981,56.252476 
	C194.520981,53.661949 194.520981,51.071419 194.520981,48.441662 
	C192.112595,48.441662 190.071243,48.441662 187.609650,48.441662 
	C187.943802,51.424980 188.220993,53.899837 188.448654,55.932518 
	C190.117401,54.320843 191.483902,53.001083 192.956573,52.338520 
M223.105209,54.619789 
	C224.340836,55.458111 225.576462,56.296429 227.606842,57.673950 
	C227.606842,53.882462 227.606842,51.217960 227.606842,48.558975 
	C223.330658,48.338848 221.095047,50.930435 223.105209,54.619789 
M206.984451,53.235622 
	C207.006836,50.701458 207.198151,47.818829 203.492828,48.144024 
	C201.997696,48.275238 200.608490,49.613327 199.171066,50.402176 
	C199.447830,50.881508 199.724594,51.360840 200.001358,51.840172 
	C201.151764,51.388477 202.302170,50.936787 203.069458,50.635517 
	C203.304276,52.840179 203.509155,54.763676 203.714035,56.687160 
	C204.792419,55.808033 205.870804,54.928902 206.984451,53.235622 
M217.955780,54.277378 
	C217.669189,50.921776 217.646011,47.268833 212.617920,48.148438 
	C211.759506,48.298607 211.035278,49.215939 209.114502,50.591209 
	C211.943192,50.591209 213.280075,50.591209 214.725220,50.591209 
	C214.883133,52.380455 215.012985,53.851784 215.142838,55.323109 
	C216.060028,55.236851 216.977219,55.150593 217.955780,54.277378 
M178.300629,46.491516 
	C181.683990,47.551025 184.208069,46.904339 185.499207,42.941208 
	C183.556595,42.941208 181.899292,43.262093 180.427246,42.876221 
	C177.083817,41.999783 176.636215,43.225304 178.300629,46.491516 
M283.271790,49.154663 
	C285.403595,51.284996 287.535370,53.415325 289.389984,55.268665 
	C291.272797,49.353645 290.025482,47.604477 283.271790,49.154663 
M142.887100,49.892231 
	C140.982758,46.732494 138.771698,47.530434 136.519058,49.437523 
	C136.396820,49.541016 136.596420,50.024673 136.696594,50.641754 
	C137.991119,50.641754 139.317535,50.641754 140.587051,50.641754 
	C140.948669,52.751919 141.255615,54.543133 141.562576,56.334347 
	C142.028915,56.309380 142.495239,56.284412 142.961578,56.259449 
	C142.961578,54.412243 142.961578,52.565041 142.887100,49.892231 
M319.754883,45.642586 
	C317.287231,41.717907 315.408447,41.576725 311.431519,46.340469 
	C314.798218,46.340469 317.160767,46.340469 319.754883,45.642586 
M306.052704,50.239979 
	C306.078156,51.888512 305.809387,53.624699 306.262482,55.145855 
	C306.466339,55.830296 308.111633,56.085381 309.102875,56.535278 
	C309.329956,55.794743 309.976196,54.803799 309.709900,54.358036 
	C308.686005,52.644119 307.369751,51.104839 306.052704,50.239979 
z"/>
<path fill="#CF9A3E" opacity="1.000000" stroke="none" 
	d="
M369.000000,40.625000 
	C358.964966,41.008865 348.929932,41.017727 338.102966,41.031200 
	C336.872833,41.079521 336.434631,41.123234 335.996460,41.166946 
	C332.334595,41.111301 328.672729,41.007626 325.010864,41.007114 
	C255.700348,40.997471 186.389816,41.000008 117.079300,41.000008 
	C115.123825,41.000008 113.168343,41.000011 111.212868,41.000011 
	C110.566429,40.164413 109.919991,39.328815 109.273552,38.493214 
	C110.398285,38.341034 111.519035,38.117527 112.648743,38.054279 
	C114.143913,37.970570 115.646080,38.001579 117.145241,38.001549 
	C200.784393,37.999828 284.423523,38.000019 368.531342,38.000008 
	C369.000000,38.750000 369.000000,39.500000 369.000000,40.625000 
z"/>
<path fill="#CB9741" opacity="1.000000" stroke="none" 
	d="
M85.982971,39.829994 
	C86.324486,40.839794 86.984772,41.858494 86.956871,42.857986 
	C86.742722,50.531651 86.235931,58.199589 86.139893,65.873306 
	C86.065872,71.787193 82.668755,75.384262 78.663841,78.763138 
	C67.645775,79.000000 56.291546,79.000000 44.465309,78.603622 
	C44.047176,77.154747 44.101048,76.102242 44.612946,75.045914 
	C49.526356,75.041382 53.999512,75.292770 58.432945,74.980392 
	C64.946777,74.521431 71.432236,73.659729 78.133293,72.856354 
	C78.594749,72.563332 78.813454,72.344360 79.243103,71.833755 
	C80.751198,68.296463 82.869568,65.068100 83.089737,61.715088 
	C83.563454,54.500774 83.060066,47.222298 83.336319,39.984535 
	C84.471672,39.942650 85.227318,39.886322 85.982971,39.829994 
z"/>
<path fill="#033374" opacity="1.000000" stroke="none" 
	d="
M86.170578,39.465340 
	C85.227318,39.886322 84.471672,39.942650 83.357880,40.006798 
	C82.999741,40.014614 83.044395,40.057171 82.987595,39.587349 
	C82.930786,27.548176 82.930786,15.978828 82.930786,3.996469 
	C69.686531,3.996469 56.925526,3.996469 44.110416,3.624737 
	C44.037537,2.502003 44.018768,1.751002 44.000000,1.000000 
	C58.020893,1.000000 72.041786,1.000000 86.531342,1.000000 
	C86.996666,11.919041 87.021507,22.838236 86.961761,33.756966 
	C86.952003,35.539257 86.568794,37.319496 86.170578,39.465340 
z"/>
<path fill="#053475" opacity="1.000000" stroke="none" 
	d="
M42.000000,79.000000 
	C28.408512,79.000000 14.817023,79.000000 1.000000,79.000000 
	C1.000000,66.313332 1.000000,53.625324 1.263585,40.463722 
	C1.701982,39.971962 1.876794,39.953796 2.033535,40.409325 
	C2.015462,52.134567 2.015462,63.386108 2.015462,74.913399 
	C15.381299,74.913399 28.150385,74.913399 41.144585,74.967682 
	C41.369698,75.021973 41.831768,75.053368 41.885178,75.445236 
	C41.959061,76.891411 41.979530,77.945702 42.000000,79.000000 
z"/>
<path fill="#CD9840" opacity="1.000000" stroke="none" 
	d="
M2.051607,39.935627 
	C1.876794,39.953796 1.701982,39.971962 1.263585,39.995064 
	C1.000000,30.312437 1.000000,20.624876 1.232044,10.805494 
	C3.512605,8.423716 5.575337,6.186461 7.602803,3.917690 
	C8.440819,2.979934 9.203213,1.974599 10.000000,1.000000 
	C20.354227,1.000000 30.708456,1.000000 41.533775,1.374447 
	C41.949646,2.493265 41.894428,3.237636 41.605030,3.999745 
	C41.370850,4.017484 40.913929,4.127110 40.452770,4.076284 
	C33.203621,4.034575 26.406555,3.823354 19.629684,4.102471 
	C8.387433,4.565504 2.007218,11.373749 2.008313,22.527349 
	C2.008849,27.989244 2.084723,33.451130 2.076683,39.191776 
	C2.007140,39.658276 1.987414,39.846024 1.986897,40.007725 
	C2.006106,39.981674 2.051607,39.935627 2.051607,39.935627 
z"/>
<path fill="#000000" opacity="1.000000" stroke="none" 
	d="
M41.839211,3.982007 
	C41.894428,3.237636 41.949646,2.493265 42.002434,1.374447 
	C42.444443,1.000000 42.888889,1.000000 43.666664,1.000000 
	C44.018768,1.751002 44.037537,2.502003 44.037811,4.090212 
	C44.059612,16.459091 44.099907,27.990763 44.096828,40.019386 
	C44.087276,52.027477 44.121098,63.538609 44.154922,75.049744 
	C44.101048,76.102242 44.047176,77.154747 43.996651,78.603622 
	C43.555557,79.000000 43.111111,79.000000 42.333336,79.000000 
	C41.979530,77.945702 41.959061,76.891411 41.949863,74.974129 
	C41.920494,50.734764 41.879848,27.358385 41.839211,3.982007 
z"/>
<path fill="#003074" opacity="1.000000" stroke="none" 
	d="
M369.000000,56.550018 
	C368.180786,57.000381 367.343811,56.890682 366.545227,57.019245 
	C361.811218,57.781406 360.670471,55.500839 360.934662,51.173759 
	C361.247223,46.054359 364.512848,47.784657 367.236084,47.973427 
	C367.562561,47.996059 367.891174,47.988174 368.609375,47.997215 
	C369.000000,50.700012 369.000000,53.400028 369.000000,56.550018 
z"/>
<path fill="#003174" opacity="1.000000" stroke="none" 
	d="
M369.000000,34.555836 
	C366.410126,35.000000 363.820282,35.000000 361.070526,35.000000 
	C361.070526,32.173256 361.070526,29.800392 361.070526,27.139692 
	C363.568848,27.139692 365.924866,27.139692 368.640442,27.069847 
	C369.000000,29.370558 369.000000,31.741114 369.000000,34.555836 
z"/>
<path fill="#000000" opacity="1.000000" stroke="none" 
	d="
M9.508951,1.000000 
	C9.203213,1.974599 8.440819,2.979934 7.602803,3.917690 
	C5.575337,6.186461 3.512605,8.423716 1.232044,10.336838 
	C1.000000,7.082645 1.000000,4.165290 1.000000,1.000000 
	C3.670005,1.000000 6.343954,1.000000 9.508951,1.000000 
z"/>
<path fill="#003174" opacity="1.000000" stroke="none" 
	d="
M326.042328,26.527771 
	C328.015839,26.915945 329.645752,27.130547 331.545013,27.380608 
	C331.773926,29.089230 331.988770,30.692902 332.375916,33.582832 
	C332.883545,31.591225 332.844147,30.437565 333.401123,29.836504 
	C334.516541,28.632784 335.814789,27.307840 337.299072,26.805309 
	C339.476593,26.068068 341.883545,26.008360 345.042847,25.531704 
	C347.129150,26.681524 349.903046,29.240816 354.121429,27.125050 
	C355.253784,26.557106 357.761414,26.875109 358.454437,27.737411 
	C359.411835,28.928671 359.815613,31.191673 359.371735,32.669949 
	C359.057037,33.717941 356.960541,34.851315 355.638336,34.877365 
	C345.840424,35.070400 336.037262,34.999054 326.235748,35.003475 
	C317.833435,35.007267 309.427734,35.135975 301.030792,34.922626 
	C298.301605,34.853283 294.633209,36.755226 293.192993,32.378639 
	C292.210907,32.797695 291.192017,33.149380 290.259186,33.658684 
	C289.599609,34.018818 289.056549,34.592384 287.499908,34.410404 
	C289.067963,30.711981 290.635986,27.013557 292.758118,22.008261 
	C294.933289,26.417835 296.550079,29.695385 297.913818,32.459972 
	C299.343018,30.457243 300.834686,28.366951 302.326385,26.276655 
	C303.531647,27.253845 304.736877,28.231037 305.574005,28.909752 
	C306.327301,28.349997 307.413910,26.917908 308.686371,26.727446 
	C311.311432,26.334522 314.609924,25.636438 316.592773,26.813513 
	C320.115997,28.904997 322.714294,26.756876 326.042328,26.527771 
M347.503021,33.524361 
	C347.503021,33.524361 347.490601,33.486824 347.503021,33.524361 
M346.524414,30.497091 
	C346.524414,30.497091 346.486877,30.509527 346.524414,30.497091 
z"/>
<path fill="#003174" opacity="1.000000" stroke="none" 
	d="
M158.901077,27.041348 
	C161.228561,27.023863 163.619614,27.343311 165.870316,26.918785 
	C170.563812,26.033503 172.928711,27.385952 172.095596,32.068615 
	C173.251144,30.392389 174.385773,27.096962 175.826965,26.956945 
	C180.667404,26.486666 185.617126,27.141169 190.310516,27.819218 
	C193.858566,27.443468 197.406631,27.067717 201.316788,26.653618 
	C201.725403,28.993795 202.024200,30.705107 202.322998,32.416420 
	C202.523132,32.440609 202.723267,32.464798 202.923401,32.488991 
	C203.093857,30.870045 203.264328,29.251099 203.433228,27.632046 
	C208.881226,25.864504 209.764511,26.379728 211.732224,33.053051 
	C211.732224,29.496244 211.732224,26.637758 211.732224,23.770786 
	C215.190582,23.553570 215.190582,23.553570 214.905289,34.964554 
	C208.202545,34.964554 201.474014,34.959778 194.745483,34.965694 
	C185.130112,34.974152 175.514725,34.998234 165.899353,35.000744 
	C159.028305,35.002541 159.028305,34.991631 158.970032,27.445595 
	C158.946823,27.015276 158.901077,27.041348 158.901077,27.041348 
z"/>
<path fill="#003274" opacity="1.000000" stroke="none" 
	d="
M267.000519,34.831795 
	C255.082077,34.831795 243.163651,34.831795 230.954803,34.831795 
	C230.954803,32.828171 230.954803,31.063339 230.954803,28.708855 
	C227.833374,30.151369 223.638901,29.493347 225.181046,34.815239 
	C223.588120,34.815239 222.456604,34.815239 220.883530,34.815239 
	C220.883530,31.098055 220.883530,27.517527 220.883530,23.464027 
	C224.696472,23.464027 228.862289,23.464027 233.673050,23.464027 
	C233.843567,26.359272 234.021744,29.384542 234.137894,31.356764 
	C235.670639,29.914497 238.961914,26.413719 239.226395,26.629143 
	C243.247635,29.904381 253.039932,21.085659 253.341064,32.943798 
	C253.341064,31.181124 253.341064,29.418447 253.341064,27.720554 
	C260.435791,25.948446 260.435791,25.948446 261.411255,32.260811 
	C262.259430,27.728186 263.929382,25.189379 268.645172,27.458359 
	C268.325867,30.222237 267.663208,32.527016 267.000519,34.831795 
z"/>
<path fill="#003275" opacity="1.000000" stroke="none" 
	d="
M113.994461,30.042221 
	C113.995102,28.672960 113.995102,27.679140 113.995102,27.221952 
	C112.475693,26.259571 111.318375,25.526533 110.161049,24.793491 
	C111.485306,24.196941 112.759583,23.333567 114.146904,23.073734 
	C115.755013,22.772547 117.462463,22.995832 119.126755,23.001543 
	C125.740379,23.024240 129.133835,25.649971 131.036804,33.403664 
	C131.412704,21.127205 139.315567,29.924761 142.834259,26.615187 
	C145.176285,34.115761 144.589172,34.979546 137.862274,34.997803 
	C132.893219,35.011292 127.924110,35.000450 123.113548,35.000450 
	C122.074036,31.579069 121.172806,28.612825 120.271576,25.646580 
	C119.661957,25.781780 119.052345,25.916981 118.442734,26.052181 
	C118.442734,28.841303 118.442734,31.630426 118.442734,34.773308 
	C117.287064,34.828506 115.858681,34.896732 113.993828,34.985809 
	C113.993828,33.281445 113.993828,31.849554 113.994461,30.042221 
z"/>
<path fill="#003175" opacity="1.000000" stroke="none" 
	d="
M267.417908,34.883179 
	C267.663208,32.527016 268.325867,30.222237 268.993256,27.540092 
	C272.634888,26.864578 276.269501,26.534527 279.909302,26.277348 
	C283.469208,26.025814 283.225891,29.025005 283.337006,31.017611 
	C283.407288,32.278423 282.217163,33.906738 281.131348,34.825134 
	C280.462616,35.390724 278.925751,34.929855 278.100647,34.929855 
	C277.167419,32.849205 276.393860,31.124556 275.620300,29.399904 
	C275.167023,29.561794 274.713745,29.723686 274.260437,29.885578 
	C274.147339,31.478241 274.034241,33.070904 273.901917,34.934555 
	C271.789276,34.934555 269.812286,34.934555 267.417908,34.883179 
z"/>
<path fill="#003174" opacity="1.000000" stroke="none" 
	d="
M158.967896,26.999502 
	C157.188782,26.339640 155.388596,25.695553 153.588409,25.051466 
	C156.525543,27.887562 156.411896,27.784851 153.625381,30.868027 
	C153.067200,31.485641 153.739471,33.215313 153.868164,34.707886 
	C152.418640,34.707886 150.859039,34.707886 149.282410,34.707886 
	C149.282410,31.008318 149.282410,27.420919 149.282410,23.418322 
	C153.327423,23.418322 157.952042,23.418322 162.576660,23.418322 
	C162.718201,23.832672 162.859726,24.247023 163.001266,24.661375 
	C161.786697,25.267111 160.572128,25.872847 159.129318,26.759964 
	C158.901077,27.041348 158.946823,27.015276 158.967896,26.999502 
z"/>
<path fill="#003173" opacity="1.000000" stroke="none" 
	d="
M335.996765,41.576206 
	C336.434631,41.123234 336.872833,41.079521 337.636353,41.100285 
	C341.027466,41.976711 342.427765,43.685802 342.104736,47.116478 
	C341.900787,49.282612 342.878967,51.538158 343.091156,53.775948 
	C343.178284,54.695000 342.645142,55.672871 342.394165,56.623989 
	C341.397827,56.278824 339.694885,56.145653 339.517609,55.554756 
	C338.175751,51.082161 337.133118,46.519806 335.996765,41.576206 
z"/>
<path fill="#003274" opacity="1.000000" stroke="none" 
	d="
M111.975525,54.001026 
	C110.702370,48.491665 110.702370,48.491665 118.670898,47.595890 
	C118.670898,50.516998 118.670898,53.404125 118.670898,57.354156 
	C116.752243,54.280666 112.805893,59.721329 111.975525,54.001026 
z"/>
<path fill="#003274" opacity="1.000000" stroke="none" 
	d="
M129.527588,56.114799 
	C127.755249,56.303078 126.284363,56.656670 124.408134,57.107704 
	C124.408134,54.009533 124.408134,51.482368 124.408134,48.955208 
	C124.714188,48.610336 125.020241,48.265465 125.326286,47.920589 
	C126.610069,49.213425 127.893845,50.506260 129.311478,51.933899 
	C129.690384,51.075771 130.324448,49.639759 130.958496,48.203751 
	C131.550705,48.230885 132.142914,48.258018 132.735123,48.285156 
	C132.735123,50.786964 132.815216,53.295448 132.608322,55.780025 
	C132.588150,56.022186 130.797745,56.116936 129.527588,56.114799 
z"/>
<path fill="#003174" opacity="1.000000" stroke="none" 
	d="
M178.974426,56.623459 
	C177.423096,55.900394 175.736404,55.596863 175.159210,54.630592 
	C174.274689,53.149853 174.154327,51.212654 173.635162,49.177204 
	C177.713928,46.294308 177.817474,49.907768 178.671341,53.334587 
	C179.672348,51.066883 180.302429,49.639481 180.932510,48.212074 
	C181.469910,48.216167 182.007309,48.220261 182.544693,48.224350 
	C182.652191,50.560860 183.025055,52.935181 182.700882,55.210178 
	C182.607071,55.868610 180.513092,56.242035 178.974426,56.623459 
z"/>
<path fill="#003074" opacity="1.000000" stroke="none" 
	d="
M246.033447,48.362770 
	C247.688751,49.279640 248.977768,50.343292 250.518051,51.614262 
	C250.775909,50.910320 251.215454,49.710464 251.654999,48.510609 
	C251.927124,48.537033 252.199249,48.563457 252.471375,48.589886 
	C252.471375,51.193848 252.471375,53.797813 252.471375,56.515053 
	C250.221130,56.515053 248.021057,56.515053 244.986389,56.515053 
	C245.214951,53.827427 245.441071,51.168491 246.033447,48.362770 
z"/>
<path fill="#003274" opacity="1.000000" stroke="none" 
	d="
M148.126678,55.286713 
	C148.006943,48.750866 150.157440,46.133652 153.730453,48.439743 
	C155.545273,49.611057 155.789581,53.215698 156.743881,55.720310 
	C156.215790,55.966965 155.687698,56.213623 155.159622,56.460281 
	C154.519684,55.602379 153.879745,54.744476 153.571823,54.331669 
	C151.661240,54.809605 149.924683,55.244011 148.126678,55.286713 
z"/>
<path fill="#003275" opacity="1.000000" stroke="none" 
	d="
M165.130981,51.378799 
	C166.157379,50.831966 167.110336,49.941700 168.585510,48.563549 
	C168.731628,51.203857 168.872940,53.757435 169.018555,56.388424 
	C166.265594,56.523823 163.990768,56.635708 161.198181,56.773056 
	C161.198181,54.827682 161.030624,53.066444 161.258347,51.357895 
	C161.404907,50.258278 162.132324,49.236088 162.599411,48.179192 
	C163.418793,49.131248 164.238159,50.083305 165.130981,51.378799 
z"/>
<path fill="#003274" opacity="1.000000" stroke="none" 
	d="
M328.020630,50.708321 
	C328.828491,51.337273 330.150635,51.981625 330.273560,51.802586 
	C330.941162,50.830231 331.312805,49.654644 331.948547,48.170311 
	C334.675995,56.838432 334.372620,57.317852 326.812286,56.665932 
	C325.945007,54.224266 325.043335,51.685726 324.141632,49.147186 
	C324.461273,48.750034 324.780945,48.352882 325.100586,47.955734 
	C326.060852,48.751713 327.021118,49.547691 328.020630,50.708321 
z"/>
<path fill="#003275" opacity="1.000000" stroke="none" 
	d="
M347.457642,50.662918 
	C347.886047,49.593784 348.432343,48.274563 349.105560,48.206264 
	C351.061615,48.007809 353.068573,48.310711 355.527466,48.442169 
	C355.527466,50.980465 355.527466,53.604961 355.527466,56.229454 
	C355.260620,56.294437 354.993805,56.359421 354.726959,56.424408 
	C354.375549,55.168785 354.024170,53.913166 353.606110,52.419388 
	C352.545898,53.922787 351.522308,55.374237 350.128906,57.350117 
	C349.121368,54.779903 348.377411,52.882092 347.457642,50.662918 
z"/>
<path fill="#003174" opacity="1.000000" stroke="none" 
	d="
M265.867004,49.644672 
	C266.885620,56.553753 266.885620,56.553753 259.753052,56.675453 
	C258.908173,54.206146 258.040192,51.669266 257.119690,48.978893 
	C262.092316,46.610512 260.370087,51.195339 262.150391,53.998444 
	C263.197479,51.791897 263.927429,50.241333 264.682343,48.703003 
	C264.716156,48.634056 265.020874,48.610622 265.122162,48.679539 
	C265.370636,48.848522 265.573914,49.083935 265.867004,49.644672 
z"/>
<path fill="#003275" opacity="1.000000" stroke="none" 
	d="
M234.393021,56.736687 
	C233.591248,54.020824 233.200577,51.428444 232.809921,48.836067 
	C233.266785,48.751099 233.723648,48.666126 234.180527,48.581158 
	C234.702057,49.888443 235.223602,51.195728 236.105713,53.406818 
	C236.774780,51.178234 237.167023,49.871700 237.559265,48.565170 
	C237.852615,48.509720 238.145966,48.454266 238.439301,48.398811 
	C239.142166,51.005154 239.845032,53.611492 240.547897,56.217831 
	C238.633316,56.431946 236.718719,56.646061 234.393021,56.736687 
z"/>
<path fill="#003174" opacity="1.000000" stroke="none" 
	d="
M275.294556,50.662804 
	C274.375977,52.793209 273.783508,54.734867 273.191071,56.676529 
	C272.788422,56.675537 272.385803,56.674545 271.983154,56.673553 
	C271.983154,53.975922 271.983154,51.278294 271.983154,48.481815 
	C278.812012,47.315056 279.826172,48.448959 278.282501,57.027802 
	C277.214355,54.397900 276.417542,52.435978 275.294556,50.662804 
z"/>
<path fill="#003175" opacity="1.000000" stroke="none" 
	d="
M295.551270,51.929325 
	C295.287384,50.699230 295.138702,48.589302 295.417786,48.531116 
	C297.336273,48.131130 299.344269,48.160297 301.928497,48.018055 
	C301.014404,50.861187 300.666199,52.532909 299.936035,54.016666 
	C299.414795,55.075954 298.380646,55.882835 297.575378,56.802353 
	C297.212250,55.624989 296.867767,54.441372 296.476471,53.273460 
	C296.327942,52.830013 296.071594,52.422688 295.551270,51.929325 
z"/>
<path fill="#003175" opacity="1.000000" stroke="none" 
	d="
M319.995056,52.837021 
	C319.597656,54.409214 319.201508,55.564667 318.805359,56.720123 
	C316.846497,55.441792 314.887665,54.163452 311.902557,52.215378 
	C314.573151,50.411022 316.273010,49.262531 317.972870,48.114037 
	C318.647339,49.549446 319.321808,50.984867 319.995056,52.837021 
z"/>
<path fill="#003274" opacity="1.000000" stroke="none" 
	d="
M192.903473,52.009922 
	C191.483902,53.001083 190.117401,54.320843 188.448654,55.932518 
	C188.220993,53.899837 187.943802,51.424980 187.609650,48.441662 
	C190.071243,48.441662 192.112595,48.441662 194.520981,48.441662 
	C194.520981,51.071419 194.520981,53.661949 194.520981,56.252476 
	C194.161880,56.279957 193.802780,56.307438 193.443680,56.334919 
	C193.281311,55.002785 193.118942,53.670650 192.903473,52.009922 
z"/>
<path fill="#002E73" opacity="1.000000" stroke="none" 
	d="
M222.865143,54.365032 
	C221.095047,50.930435 223.330658,48.338848 227.606842,48.558975 
	C227.606842,51.217960 227.606842,53.882462 227.606842,57.673950 
	C225.576462,56.296429 224.340836,55.458111 222.865143,54.365032 
z"/>
<path fill="#003174" opacity="1.000000" stroke="none" 
	d="
M206.966827,53.642696 
	C205.870804,54.928902 204.792419,55.808033 203.714035,56.687164 
	C203.509155,54.763676 203.304276,52.840179 203.069458,50.635517 
	C202.302170,50.936787 201.151764,51.388477 200.001358,51.840172 
	C199.724594,51.360840 199.447830,50.881508 199.171066,50.402176 
	C200.608490,49.613327 201.997696,48.275238 203.492828,48.144024 
	C207.198151,47.818829 207.006836,50.701458 206.966827,53.642696 
z"/>
<path fill="#003074" opacity="1.000000" stroke="none" 
	d="
M217.925095,54.670860 
	C216.977219,55.150593 216.060028,55.236851 215.142838,55.323109 
	C215.012985,53.851784 214.883133,52.380455 214.725220,50.591209 
	C213.280075,50.591209 211.943192,50.591209 209.114502,50.591209 
	C211.035278,49.215939 211.759506,48.298607 212.617920,48.148438 
	C217.646011,47.268833 217.669189,50.921776 217.925095,54.670860 
z"/>
<path fill="#002F74" opacity="1.000000" stroke="none" 
	d="
M178.025085,46.239613 
	C176.636215,43.225304 177.083817,41.999783 180.427246,42.876221 
	C181.899292,43.262093 183.556595,42.941208 185.499207,42.941208 
	C184.208069,46.904339 181.683990,47.551025 178.025085,46.239613 
z"/>
<path fill="#003275" opacity="1.000000" stroke="none" 
	d="
M283.416473,48.811398 
	C290.025482,47.604477 291.272797,49.353645 289.389984,55.268665 
	C287.535370,53.415325 285.403595,51.284996 283.416473,48.811398 
z"/>
<path fill="#003274" opacity="1.000000" stroke="none" 
	d="
M142.924347,50.305035 
	C142.961578,52.565041 142.961578,54.412243 142.961578,56.259449 
	C142.495239,56.284412 142.028915,56.309380 141.562576,56.334347 
	C141.255615,54.543133 140.948669,52.751919 140.587051,50.641754 
	C139.317535,50.641754 137.991119,50.641754 136.696594,50.641754 
	C136.596420,50.024673 136.396820,49.541016 136.519058,49.437523 
	C138.771698,47.530434 140.982758,46.732494 142.924347,50.305035 
z"/>
<path fill="#003174" opacity="1.000000" stroke="none" 
	d="
M319.639099,45.991528 
	C317.160767,46.340469 314.798218,46.340469 311.431519,46.340469 
	C315.408447,41.576725 317.287231,41.717907 319.639099,45.991528 
z"/>
<path fill="#003075" opacity="1.000000" stroke="none" 
	d="
M306.107635,49.870201 
	C307.369751,51.104839 308.686005,52.644119 309.709900,54.358036 
	C309.976196,54.803799 309.329956,55.794743 309.102875,56.535278 
	C308.111633,56.085381 306.466339,55.830296 306.262482,55.145855 
	C305.809387,53.624699 306.078156,51.888512 306.107635,49.870201 
z"/>
<path fill="#043475" opacity="1.000000" stroke="none" 
	d="
M44.612946,75.045914 
	C44.121098,63.538609 44.087276,52.027477 44.557739,40.033493 
	C57.722816,39.719486 70.383606,39.888329 83.044395,40.057171 
	C83.044395,40.057171 82.999741,40.014614 82.978180,39.992348 
	C83.060066,47.222298 83.563454,54.500774 83.089737,61.715088 
	C82.869568,65.068100 80.751198,68.296463 78.971016,71.808914 
	C78.267548,72.054985 78.086380,72.073479 77.947784,71.737076 
	C76.465332,69.273911 74.608910,67.327721 73.482452,65.024521 
	C70.934578,59.815033 68.824783,54.392792 66.358337,49.140900 
	C65.737175,47.818237 64.443275,46.811512 63.458534,45.659599 
	C62.306461,46.829082 60.751240,47.802094 60.069550,49.200825 
	C56.411148,56.707321 52.970242,64.319817 49.439785,71.926796 
	C49.477676,71.930702 50.239578,72.061287 51.003918,72.077522 
	C52.643642,72.112366 54.284622,72.088211 56.175270,72.088211 
	C53.894505,69.048714 54.213478,62.519615 57.372643,61.127674 
	C60.146927,59.905304 64.343956,59.905617 67.094383,61.159988 
	C70.296608,62.620411 70.737038,69.265686 68.417496,71.994797 
	C71.815430,71.994797 74.905830,71.994797 78.019684,72.241226 
	C78.043144,72.487663 77.929779,72.969604 77.929779,72.969604 
	C71.432236,73.659729 64.946777,74.521431 58.432945,74.980392 
	C53.999512,75.292770 49.526356,75.041382 44.612946,75.045914 
z"/>
<path fill="#C19146" opacity="1.000000" stroke="none" 
	d="
M78.133293,72.856354 
	C77.929779,72.969604 78.043144,72.487663 77.997238,72.265816 
	C77.951340,72.043968 77.905205,72.091972 77.905205,72.091972 
	C78.086380,72.073479 78.267548,72.054985 78.720810,72.061340 
	C78.813454,72.344360 78.594749,72.563332 78.133293,72.856354 
z"/>
<path fill="#CB9741" opacity="1.000000" stroke="none" 
	d="
M82.987595,39.587349 
	C70.383606,39.888329 57.722816,39.719486 44.601116,39.536537 
	C44.099907,27.990763 44.059612,16.459091 44.091919,4.461944 
	C56.925526,3.996469 69.686531,3.996469 82.930786,3.996469 
	C82.930786,15.978828 82.930786,27.548176 82.987595,39.587349 
M67.402939,11.047158 
	C70.221382,11.447397 73.039825,11.847635 75.858269,12.247874 
	C76.157799,11.948623 76.457329,11.649372 76.756859,11.350121 
	C75.511703,10.234515 74.318588,8.232132 73.012474,8.155499 
	C67.087112,7.807836 61.129894,8.003306 55.647339,8.003306 
	C55.647339,16.893305 55.647339,25.302622 55.647339,33.830475 
	C57.702217,33.830475 59.310593,33.830475 60.015526,33.830475 
	C59.621094,29.617573 59.238548,25.531616 58.755241,20.369402 
	C64.836647,21.202089 69.747520,21.874504 74.652023,22.546043 
	C74.652023,21.485086 74.652023,19.365747 74.652023,18.453299 
	C69.426971,19.122572 64.440514,19.761284 59.312592,20.418116 
	C59.312592,16.305721 59.312592,13.374496 59.312592,11.046920 
	C61.888016,11.046920 64.195877,11.046920 67.402939,11.047158 
z"/>
<path fill="#CF9940" opacity="1.000000" stroke="none" 
	d="
M40.919472,74.913399 
	C28.150385,74.913399 15.381299,74.913399 2.015462,74.913399 
	C2.015462,63.386108 2.015462,52.134567 2.033535,40.409325 
	C2.051607,39.935627 2.006106,39.981674 2.457616,40.000755 
	C14.063941,40.018341 25.219913,40.105839 36.372868,39.961048 
	C39.712765,39.917686 41.170631,40.846313 41.094353,44.450584 
	C40.879517,54.601543 40.957142,64.758690 40.919472,74.913399 
M29.489578,47.389256 
	C30.027775,49.356743 31.580372,51.864807 30.882826,53.173763 
	C29.618364,55.546547 27.013361,57.204956 24.333582,59.768410 
	C28.628754,59.306885 32.591576,58.923321 34.700356,55.339088 
	C35.743183,53.566628 35.876534,50.333981 34.941963,48.527271 
	C33.297760,45.348701 29.926294,44.563736 25.386641,45.089779 
	C27.184483,46.069252 28.033157,46.531612 29.489578,47.389256 
M17.064802,48.868275 
	C16.729862,47.555344 16.394922,46.242416 16.059980,44.929485 
	C15.398497,45.084206 14.737013,45.238926 14.075528,45.393646 
	C14.075528,54.178600 14.075528,62.963554 14.075528,71.734131 
	C15.831251,71.734131 18.833883,71.734131 21.836517,71.734131 
	C16.995966,70.034317 16.913673,66.259956 17.037127,62.249908 
	C17.164871,58.100422 17.065371,53.943943 17.064802,48.868275 
z"/>
<path fill="#6E5D69" opacity="1.000000" stroke="none" 
	d="
M41.144585,74.967682 
	C40.957142,64.758690 40.879517,54.601543 41.094353,44.450584 
	C41.170631,40.846313 39.712765,39.917686 36.372868,39.961048 
	C25.219913,40.105839 14.063941,40.018341 2.438407,40.026806 
	C1.987414,39.846024 2.007140,39.658276 2.535874,39.225563 
	C14.170506,38.993561 25.297421,38.915848 36.420982,39.073952 
	C39.822750,39.122295 41.145809,38.026470 41.076553,34.511360 
	C40.877060,24.386137 40.948757,14.255574 40.913929,4.127110 
	C40.913929,4.127110 41.370850,4.017484 41.605026,3.999745 
	C41.879848,27.358385 41.920494,50.734764 41.896454,74.582260 
	C41.831768,75.053368 41.369698,75.021973 41.144585,74.967682 
z"/>
<path fill="#033475" opacity="1.000000" stroke="none" 
	d="
M40.452770,4.076284 
	C40.948757,14.255574 40.877060,24.386137 41.076553,34.511360 
	C41.145809,38.026470 39.822750,39.122295 36.420982,39.073952 
	C25.297421,38.915848 14.170506,38.993561 2.585690,38.946808 
	C2.084723,33.451130 2.008849,27.989244 2.008313,22.527349 
	C2.007218,11.373749 8.387433,4.565504 19.629684,4.102471 
	C26.406555,3.823354 33.203621,4.034575 40.452770,4.076284 
M37.665855,9.215578 
	C32.344292,6.615252 13.320269,7.618641 11.532874,10.970555 
	C12.390315,10.694227 12.958001,10.545959 13.499452,10.331467 
	C19.509954,7.950430 20.974491,8.866847 20.981480,15.046411 
	C20.988560,21.307350 20.983044,27.568302 20.983044,33.790146 
	C23.023420,33.790146 24.743387,33.790146 26.644558,33.790146 
	C23.789204,29.491358 23.026052,19.976097 24.850794,8.993119 
	C29.307547,10.110300 33.653309,11.199659 37.976307,12.283311 
	C37.967812,12.132968 37.905773,11.035218 37.665855,9.215578 
z"/>
<path fill="#003074" opacity="1.000000" stroke="none" 
	d="
M347.496826,33.505592 
	C347.490601,33.486824 347.503021,33.524361 347.496826,33.505592 
z"/>
<path fill="#003074" opacity="1.000000" stroke="none" 
	d="
M346.505646,30.503309 
	C346.486877,30.509527 346.524414,30.497091 346.505646,30.503309 
z"/>
<path fill="#C19146" opacity="1.000000" stroke="none" 
	d="
M77.973785,72.019379 
	C74.905830,71.994797 71.815430,71.994797 68.417496,71.994797 
	C70.737038,69.265686 70.296608,62.620411 67.094383,61.159988 
	C64.343956,59.905617 60.146927,59.905304 57.372643,61.127674 
	C54.213478,62.519615 53.894505,69.048714 56.175270,72.088211 
	C54.284622,72.088211 52.643642,72.112366 51.003918,72.077522 
	C50.239578,72.061287 49.477676,71.930702 49.439785,71.926796 
	C52.970242,64.319817 56.411148,56.707321 60.069550,49.200825 
	C60.751240,47.802094 62.306461,46.829082 63.458534,45.659599 
	C64.443275,46.811512 65.737175,47.818237 66.358337,49.140900 
	C68.824783,54.392792 70.934578,59.815033 73.482452,65.024521 
	C74.608910,67.327721 76.465332,69.273911 77.947784,71.737076 
	C77.905205,72.091972 77.951340,72.043968 77.973785,72.019379 
M63.250359,51.795006 
	C62.603947,51.762383 61.498405,51.500721 61.382633,51.732803 
	C60.306576,53.889923 59.400822,56.131996 58.314335,58.654335 
	C61.167553,58.654335 63.462067,58.654335 66.202606,58.654335 
	C65.201256,56.267929 64.389465,54.333263 63.250359,51.795006 
z"/>
<path fill="#073574" opacity="1.000000" stroke="none" 
	d="
M66.953339,11.047039 
	C64.195877,11.046920 61.888016,11.046920 59.312592,11.046920 
	C59.312592,13.374496 59.312592,16.305721 59.312592,20.418116 
	C64.440514,19.761284 69.426971,19.122572 74.652023,18.453299 
	C74.652023,19.365747 74.652023,21.485086 74.652023,22.546043 
	C69.747520,21.874504 64.836647,21.202089 58.755241,20.369402 
	C59.238548,25.531616 59.621094,29.617573 60.015526,33.830475 
	C59.310593,33.830475 57.702217,33.830475 55.647339,33.830475 
	C55.647339,25.302622 55.647339,16.893305 55.647339,8.003306 
	C61.129894,8.003306 67.087112,7.807836 73.012474,8.155499 
	C74.318588,8.232132 75.511703,10.234515 76.756859,11.350121 
	C76.457329,11.649372 76.157799,11.948623 75.858269,12.247874 
	C73.039825,11.847635 70.221382,11.447397 66.953339,11.047039 
z"/>
<path fill="#173A73" opacity="1.000000" stroke="none" 
	d="
M29.185707,47.191612 
	C28.033157,46.531612 27.184483,46.069252 25.386641,45.089779 
	C29.926294,44.563736 33.297760,45.348701 34.941963,48.527271 
	C35.876534,50.333981 35.743183,53.566628 34.700356,55.339088 
	C32.591576,58.923321 28.628754,59.306885 24.333582,59.768410 
	C27.013361,57.204956 29.618364,55.546547 30.882826,53.173763 
	C31.580372,51.864807 30.027775,49.356743 29.185707,47.191612 
z"/>
<path fill="#0A3674" opacity="1.000000" stroke="none" 
	d="
M17.065037,49.329399 
	C17.065371,53.943943 17.164871,58.100422 17.037127,62.249908 
	C16.913673,66.259956 16.995966,70.034317 21.836517,71.734131 
	C18.833883,71.734131 15.831251,71.734131 14.075528,71.734131 
	C14.075528,62.963554 14.075528,54.178600 14.075528,45.393646 
	C14.737013,45.238926 15.398497,45.084206 16.059980,44.929485 
	C16.394922,46.242416 16.729862,47.555344 17.065037,49.329399 
z"/>
<path fill="#C79543" opacity="1.000000" stroke="none" 
	d="
M37.754795,9.576524 
	C37.905773,11.035218 37.967812,12.132968 37.976307,12.283311 
	C33.653309,11.199659 29.307547,10.110300 24.850794,8.993119 
	C23.026052,19.976097 23.789204,29.491358 26.644558,33.790146 
	C24.743387,33.790146 23.023420,33.790146 20.983044,33.790146 
	C20.983044,27.568302 20.988560,21.307350 20.981480,15.046411 
	C20.974491,8.866847 19.509954,7.950430 13.499452,10.331467 
	C12.958001,10.545959 12.390315,10.694227 11.532874,10.970555 
	C13.320269,7.618641 32.344292,6.615252 37.754795,9.576524 
z"/>
<path fill="#113973" opacity="1.000000" stroke="none" 
	d="
M63.414013,52.096802 
	C64.389465,54.333263 65.201256,56.267929 66.202606,58.654335 
	C63.462067,58.654335 61.167553,58.654335 58.314335,58.654335 
	C59.400822,56.131996 60.306576,53.889923 61.382633,51.732803 
	C61.498405,51.500721 62.603947,51.762383 63.414013,52.096802 
z"/>
</svg>