<?xml version="1.0" encoding="utf-8"?>
<!-- Generator: Adobe Illustrator 23.0.1, SVG Export Plug-In . SVG Version: 6.00 Build 0)  -->
<svg version="1.1"
	 id="Layer_1" image-rendering="optimizeQuality" shape-rendering="geometricPrecision" text-rendering="geometricPrecision"
	 xmlns="http://www.w3.org/2000/svg" xmlns:xlink="http://www.w3.org/1999/xlink" x="0px" y="0px" viewBox="0 0 3333 3333"
	 style="enable-background:new 0 0 3333 3333;" xml:space="preserve">
<style type="text/css">
	.st0{fill-rule:evenodd;clip-rule:evenodd;fill:#FFFFFF;}
	.st1{fill:#FFFFFF;}
</style>
<path class="st0" d="M1667,0c460,0,877,187,1179,488c302,302,488,718,488,1179c0,460-187,877-488,1179c-302,302-718,488-1179,488
	c-460,0-877-187-1179-488C186,2544,0,2128,0,1667c0-460,187-877,488-1179C790,186,1206,0,1667,0z M2760,573
	c-280-280-666-453-1093-453S853,293,574,573c-280,280-453,666-453,1093s173,814,453,1093c280,280,666,453,1093,453s814-173,1093-453
	c280-280,453-666,453-1093S3040,852,2760,573z"/>
<g>
	<path class="st1" d="M1666.5,705.3c-556.2,0-1008.8,367.2-1008.8,818.6c0,404.7,359.3,743.6,843.6,807.7
		c32.9,7.1,77.6,21.6,88.9,49.7c10.2,25.5,6.7,65.5,3.3,91.2c0,0-11.8,71.2-14.4,86.3c-4.5,25.5-20.3,99.8,87.4,54.5
		s580.9-342.1,792.5-585.7c73.1-80.1,127.1-161,162.9-244.3c35.8-83.3,53.3-169.2,53.3-259.4
		C2675.3,1072.6,2222.7,705.3,1666.5,705.3z M1310.2,1765.7c0,10.5-8.5,18.9-18.9,18.9l0.3-0.3H1008c-5.2,0-10-2.1-13.4-5.5
		c-3.4-3.4-5.5-8.2-5.5-13.4v-439.9c0-10.4,8.5-18.9,18.9-18.9h71.9c10.4,0,18.9,8.5,18.9,18.9v349.8h192.6
		c10.4,0,18.9,8.5,18.9,18.9V1765.7z M1481.2,1765.3c0,10.7-8.6,19.3-19.3,19.3h-71.5c-10.6,0-19.3-8.6-19.3-19.3v-440.2
		c0-10.7,8.6-19.3,19.3-19.3h71.5c10.7,0,19.3,8.6,19.3,19.3V1765.3z M1967.8,1764.2c0,10.4-8.5,18.9-18.9,18.9h-71.1
		c-1.7,0-3.4-0.3-5.1-0.7h-2.9l-0.9-0.5h-0.6l-1.1-0.8c-1.9-1.3-3.6-3-4.9-4.9L1660.5,1504v264.1c0,10.4-8.5,18.9-18.9,18.9h-71.6
		c-10.5,0-18.9-8.5-18.9-18.9v-440.2c0-10.5,8.5-18.9,18.9-18.9h80.1l1,0.6h0.6l1,0.8h0.6l1,0.8l1.1,1.1c0.6,0.6,1.1,1.3,1.6,2
		l201.4,272v-261.5c0-10.4,8.5-18.9,18.9-18.9h71.9c10.4,0.2,18.7,8.8,18.5,19.3V1764.2z M2358.5,1397.1c0,10.5-8.5,18.9-18.9,18.9
		H2147v74.2h192.6c10.4,0,18.9,8.5,18.9,18.9v72.2c0,10.5-8.5,18.9-18.9,18.9H2147v74.3h192.6c10.4,0,18.9,8.5,18.9,18.9v71.5
		c0.4,10.4-7.8,19.2-18.2,19.6c-0.2,0-0.4,0-0.7,0h-283.7c-10.4,0-18.9-8.5-18.9-18.9v-440.1c0-5.2,2.1-10,5.5-13.4
		c3.4-3.4,8.1-5.5,13.4-5.5h283.7c10.4,0,18.9,8.5,18.9,18.9V1397.1z"/>
</g>
</svg>
