<?xml version="1.0" encoding="utf-8"?>
<!-- Generator: Adobe Illustrator 23.0.1, SVG Export Plug-In . SVG Version: 6.00 Build 0)  -->
<svg version="1.1"
	 id="Layer_1" image-rendering="optimizeQuality" text-rendering="geometricPrecision" shape-rendering="geometricPrecision"
	 xmlns="http://www.w3.org/2000/svg" xmlns:xlink="http://www.w3.org/1999/xlink" x="0px" y="0px" viewBox="0 0 3333 3333"
	 style="enable-background:new 0 0 3333 3333;" xml:space="preserve">
<style type="text/css">
	.st0{fill-rule:evenodd;clip-rule:evenodd;fill:#FFFFFF;}
	.st1{fill:#FFFFFF;}
</style>
<path class="st0" d="M1667,0c460,0,877,187,1179,488c302,302,488,718,488,1179c0,460-187,877-488,1179c-302,302-718,488-1179,488
	c-460,0-877-187-1179-488C186,2544,0,2128,0,1667c0-460,187-877,488-1179C790,186,1206,0,1667,0z M2760,573
	c-280-280-666-453-1093-453S853,293,574,573c-280,280-453,666-453,1093s173,814,453,1093c280,280,666,453,1093,453s814-173,1093-453
	c280-280,453-666,453-1093S3040,852,2760,573z"/>
<g>
	<path class="st1" d="M736.1,1919.3c0-113.1-0.5-226.3,0.1-339.4c2.2-430.7,288.4-798.3,703.8-904.8
		c513.1-131.5,1038.2,201.6,1139.5,720.9c97,496.9-216.6,980.9-717.1,1090c-66.9,14.6-136.6,21-205.2,21.8
		c-231.4,2.7-462.9,1.3-694.4,1.3c-138.1,0-226.3-88.4-226.4-227c-0.1-120.9,0-241.8,0-362.8
		C736.3,1919.3,736.2,1919.3,736.1,1919.3z M1418.6,2118.3c0,0.2,0,0.4,0,0.6c82.1,0,164.2-1,246.2,0.3
		c70.8,1.1,138.6-11.2,204.8-36.2c244.8-92.4,415.8-355.4,343.2-633.9c-52.8-202.7-182.4-338.7-384.5-392.3
		c-198.3-52.5-379.3-11-524.4,141.8c-93,97.9-151.7,214-156.3,351.6c-3.3,98.4-5.4,197-1.5,295.3c2.6,64-18.9,112.1-65.8,152.2
		c-24.2,20.7-36.8,45.7-24.7,78c10.9,29.1,33.8,42.4,72.6,42.5C1225.1,2118.4,1321.8,2118.3,1418.6,2118.3z"/>
</g>
</svg>
